<?xml version="1.0" encoding="UTF-8"?>
<svg id="Layer_1" xmlns="http://www.w3.org/2000/svg" version="1.1" viewBox="0 0 500 500">
  <!-- Generator: Adobe Illustrator 29.0.0, SVG Export Plug-In . SVG Version: 2.1.0 Build 186)  -->
  <polygon points="486 88.594 486 122.788 390.258 122.788 390.258 416.852 349.226 416.852 349.226 122.788 294.483 122.788 294.483 88.594 486 88.594"/>
  <polygon points="445.176 163.546 445.176 262.844 479.161 262.844 479.161 297.038 445.176 297.038 445.176 382.658 485.934 382.658 485.934 416.852 397.031 416.852 397.031 129.353 485.934 129.353 485.934 163.546 445.176 163.546"/>
  <polygon points="342.387 132.783 342.387 203.8 342.387 274.817 342.387 345.834 342.387 416.851 330.84 416.851 319.292 416.851 307.744 416.851 296.197 416.851 288.529 375.79 280.861 334.729 273.193 293.669 265.524 252.608 265.514 293.669 265.503 334.729 265.492 375.79 265.481 416.851 253.933 416.851 242.386 416.851 230.838 416.851 219.291 416.851 219.291 334.786 219.291 252.722 219.291 170.657 219.291 88.593 230.838 88.593 242.386 88.593 253.933 88.593 265.481 88.593 273.16 129.625 280.839 170.657 288.518 211.69 296.197 252.722 296.205 222.737 296.212 192.752 296.22 162.768 296.228 132.783 307.767 132.783 319.307 132.783 330.847 132.783 342.387 132.783"/>
  <path d="M74.168,88.616c-.252-.007-.504-.011-.759-.011H14.129v328.247h47.952v-166.457h11.327c20.054,0,36.463-16.883,36.463-37.522v-86.745c0-20.376-15.991-37.091-35.703-37.511M68.909,223.403h-6.981v-107.946h6.981v107.946Z"/>
  <path d="M175.989,88.605h-22.805c-20.065,0-36.474,16.883-36.474,37.52v253.207c0,20.636,16.409,37.52,36.474,37.52h22.805c20.054,0,36.463-16.883,36.463-37.52V126.125c0-20.636-16.409-37.52-36.463-37.52M168.071,389.403h-6.981V115.855h6.981v273.548Z"/>
</svg>